<svg width="32" height="32" viewBox="0 0 32 32" fill="none" xmlns="http://www.w3.org/2000/svg">
<path d="M27.2691 10.4374C27.1379 10.5195 24.0147 12.2528 24.0147 16.096C24.1619 20.479 27.9561 22.016 28.0211 22.016C27.9561 22.0982 27.4483 24.1099 25.9443 26.2187C24.7507 28.0352 23.4259 29.8667 21.4142 29.8667C19.5006 29.8667 18.8137 28.656 16.6057 28.656C14.2345 28.656 13.5635 29.8667 11.7481 29.8667C9.73632 29.8667 8.31339 27.9371 7.05472 26.1376C5.41952 23.7824 4.02965 20.0864 3.98059 16.5376C3.94752 14.6571 4.30805 12.8086 5.22325 11.2384C6.51499 9.04643 8.82112 7.55843 11.3395 7.50936C13.2691 7.44429 14.9865 8.83416 16.1641 8.83416C17.2926 8.83416 19.4025 7.50936 21.7897 7.50936C22.8201 7.51043 25.5678 7.82083 27.2691 10.4374ZM16.0009 7.13389C15.6574 5.41656 16.6057 3.69923 17.4889 2.60376C18.6174 1.27896 20.3998 0.379761 21.9369 0.379761C22.035 2.09709 21.4131 3.78136 20.3017 5.00803C19.3043 6.33283 17.587 7.33016 16.0009 7.13389Z" fill="#B8ABC5"/>
</svg>
