<svg width="16" height="16" viewBox="0 0 16 16" fill="none" xmlns="http://www.w3.org/2000/svg">
<path d="M8.96177 6.31263C9.04552 6.31263 9.08747 6.21138 9.02827 6.15214L7.27841 4.40144C6.99526 4.11756 6.98694 3.66276 7.25379 3.36906C7.26187 3.36017 7.2702 3.35142 7.27878 3.34284L8.60185 2.01912C8.89413 1.7267 9.36802 1.7267 9.6603 2.01912L15.114 7.47545C15.2601 7.62166 15.3332 7.8133 15.3332 8.00493C15.3332 8.19657 15.2601 8.38821 15.114 8.53442L9.6603 13.9907C9.36802 14.2832 8.89413 14.2832 8.60185 13.9907L7.27878 12.667C6.98669 12.3748 6.98706 11.9005 7.27878 11.6081L9.02827 9.85772C9.08747 9.79849 9.04552 9.69724 8.96177 9.69724H1.41864C1.00325 9.69724 0.666504 9.3605 0.666504 8.9451V7.06476C0.666504 6.64937 1.00325 6.31263 1.41864 6.31263H8.96177Z" fill="#F6ECFB"/>
</svg>
