<svg width="16" height="16" viewBox="0 0 16 16" fill="none" xmlns="http://www.w3.org/2000/svg">
<path d="M7.03823 6.31263C6.95448 6.31263 6.91253 6.21138 6.97173 6.15214L8.72159 4.40144C9.00474 4.11756 9.01306 3.66276 8.74621 3.36906C8.73813 3.36017 8.7298 3.35142 8.72122 3.34284L7.39815 2.01912C7.10587 1.7267 6.63199 1.7267 6.3397 2.01912L0.886043 7.47545C0.739902 7.62166 0.666829 7.8133 0.666829 8.00493C0.666829 8.19657 0.739902 8.38821 0.886043 8.53442L6.3397 13.9907C6.63199 14.2832 7.10587 14.2832 7.39815 13.9907L8.72122 12.667C9.01331 12.3748 9.01294 11.9005 8.72122 11.6081L6.97173 9.85772C6.91253 9.79849 6.95448 9.69724 7.03823 9.69724H14.5814C14.9968 9.69724 15.3335 9.3605 15.3335 8.9451V7.06476C15.3335 6.64937 14.9968 6.31263 14.5814 6.31263H7.03823Z" fill="#F6ECFB"/>
</svg>
