<svg width="24" height="24" viewBox="0 0 24 24" fill="none" xmlns="http://www.w3.org/2000/svg">
<path d="M7.62535 4.60719C8.26855 5.38821 9.04956 6.0268 9.89949 6.54595C11.0894 7.27183 12.3666 7.73585 13.4692 7.99772V6.55054C12.4493 5.1585 11.7234 3.45863 11.6591 1.46015C11.6407 0.941007 11.3145 0.472397 10.8137 0.339165C10.4646 0.24728 10.0879 0.329977 9.84895 0.60563C9.23792 1.31314 8.34664 2.65465 7.62535 4.61178V4.60719ZM14.9393 6.78944V9.72974C12.1461 9.49543 6.44004 7.71747 4.86423 2.50763C4.71262 2.01146 4.27617 1.64392 3.75702 1.64392C3.39408 1.64392 3.05411 1.8231 2.89331 2.14928C2.38795 3.20136 1.708 5.32389 1.708 8.25959C1.708 13.6302 5.38797 16.5521 7.14755 17.5767L0.779973 19.3133C0.545668 19.3776 0.357306 19.5522 0.279203 19.7819C0.2011 20.0116 0.242448 20.2689 0.384868 20.4618C1.2348 21.592 3.78918 23.6962 7.5886 23.6962C7.75399 23.6962 7.91938 23.641 8.04802 23.5354L11.5212 20.7559H14.9393C19.0006 20.7559 22.2901 17.4664 22.2901 13.4051V6.05437L23.6638 3.99157C23.7235 3.89968 23.7602 3.78942 23.7602 3.67916C23.7602 3.36675 23.5076 3.11407 23.1951 3.11407H18.6147C16.5841 3.11407 14.9393 4.7588 14.9393 6.78944ZM18.6147 6.05437C19.1806 6.05392 19.5347 6.66619 19.2522 7.15647C19.1209 7.38437 18.8778 7.52473 18.6147 7.52452C18.0489 7.52497 17.6947 6.91269 17.9772 6.42241C18.1086 6.19451 18.3517 6.05416 18.6147 6.05437Z" fill="#FF8A2C"/>
</svg>
