<svg width="32" height="32" viewBox="20 20 30 28"  fill="none" xmlns="http://www.w3.org/2000/svg">
<g filter="url(#filter0_dd_3699_1100)">
<path d="M33.115 32.9253C33.2679 33.1013 33.4053 33.2609 33.5263 33.4024C33.8061 32.9976 34.1866 32.449 34.6579 31.7728C35.7447 30.2141 37.3147 27.9781 39.249 25.268C40.0068 24.2063 41.469 23.5861 42.7895 24.3187C43.5747 24.7543 44.5117 25.4302 45.2497 26.4361C45.9816 27.4338 45.7659 28.688 45.1956 29.552C40.9142 36.0384 37.824 39.9892 36.1038 42.0448C34.9786 43.3896 33.0129 43.4829 31.75 42.2853C30.0908 40.7119 27.4453 38.0536 24.6936 34.6835C23.9196 33.7355 23.6904 32.2972 24.5423 31.2057C25.0947 30.4978 25.7192 29.8979 26.2748 29.4288C27.5021 28.3927 29.217 28.6722 30.2335 29.749C31.4575 31.0455 32.4388 32.1469 33.115 32.9253Z" fill="#4ADE80"/>
</g>
<defs>
<filter id="filter0_dd_3699_1100" x="-1.20312" y="-1.6875" width="72" height="72" filterUnits="userSpaceOnUse" color-interpolation-filters="sRGB">
<feFlood flood-opacity="0" result="BackgroundImageFix"/>
<feColorMatrix in="SourceAlpha" type="matrix" values="0 0 0 0 0 0 0 0 0 0 0 0 0 0 0 0 0 0 127 0" result="hardAlpha"/>
<feOffset/>
<feGaussianBlur stdDeviation="12"/>
<feComposite in2="hardAlpha" operator="out"/>
<feColorMatrix type="matrix" values="0 0 0 0 0.290196 0 0 0 0 0.870588 0 0 0 0 0.501961 0 0 0 1 0"/>
<feBlend mode="normal" in2="BackgroundImageFix" result="effect1_dropShadow_3699_1100"/>
<feColorMatrix in="SourceAlpha" type="matrix" values="0 0 0 0 0 0 0 0 0 0 0 0 0 0 0 0 0 0 127 0" result="hardAlpha"/>
<feOffset/>
<feGaussianBlur stdDeviation="4"/>
<feComposite in2="hardAlpha" operator="out"/>
<feColorMatrix type="matrix" values="0 0 0 0 0.290196 0 0 0 0 0.870588 0 0 0 0 0.501961 0 0 0 1 0"/>
<feBlend mode="normal" in2="effect1_dropShadow_3699_1100" result="effect2_dropShadow_3699_1100"/>
<feBlend mode="normal" in="SourceGraphic" in2="effect2_dropShadow_3699_1100" result="shape"/>
</filter>
</defs>
</svg>
