<svg width="12" height="12" viewBox="0 0 12 12" fill="none" xmlns="http://www.w3.org/2000/svg">
<g clip-path="url(#clip0_4183_1401)">
<path fill-rule="evenodd" clip-rule="evenodd" d="M3.13487 0.406882C4.05532 0.304286 5.0158 0.214294 6.00007 0.214294C6.98434 0.214294 7.94482 0.304286 8.86524 0.406882C10.2984 0.566622 11.4499 1.71712 11.6035 3.15282C11.7014 4.06851 11.7858 5.02256 11.7858 6.00001C11.7858 6.97745 11.7014 7.9315 11.6035 8.84718C11.4499 10.2829 10.2984 11.4334 8.86524 11.5931C7.94482 11.6957 6.98434 11.7857 6.00007 11.7857C5.0158 11.7857 4.05532 11.6957 3.13487 11.5931C1.70177 11.4334 0.550277 10.2829 0.396673 8.84718C0.298705 7.9315 0.214355 6.97745 0.214355 6.00001C0.214355 5.02256 0.298705 4.06851 0.396673 3.15282C0.550276 1.71712 1.70177 0.566622 3.13487 0.406882ZM3.85721 4.71429C4.3306 4.71429 4.71436 4.33053 4.71436 3.85715C4.71436 3.38377 4.3306 3.00001 3.85721 3.00001C3.38383 3.00001 3.00007 3.38377 3.00007 3.85715C3.00007 4.33053 3.38383 4.71429 3.85721 4.71429ZM3.85721 9.00001C4.3306 9.00001 4.71436 8.61627 4.71436 8.14287C4.71436 7.66948 4.3306 7.28572 3.85721 7.28572C3.38383 7.28572 3.00007 7.66948 3.00007 8.14287C3.00007 8.61627 3.38383 9.00001 3.85721 9.00001ZM9.00007 3.85715C9.00007 4.33053 8.61633 4.71429 8.14293 4.71429C7.66954 4.71429 7.28578 4.33053 7.28578 3.85715C7.28578 3.38377 7.66954 3.00001 8.14293 3.00001C8.61633 3.00001 9.00007 3.38377 9.00007 3.85715ZM8.14293 9.00001C8.61633 9.00001 9.00007 8.61627 9.00007 8.14287C9.00007 7.66948 8.61633 7.28572 8.14293 7.28572C7.66954 7.28572 7.28578 7.66948 7.28578 8.14287C7.28578 8.61627 7.66954 9.00001 8.14293 9.00001ZM6.85721 6.00001C6.85721 6.47339 6.47345 6.85715 6.00007 6.85715C5.52669 6.85715 5.14293 6.47339 5.14293 6.00001C5.14293 5.52663 5.52669 5.14287 6.00007 5.14287C6.47345 5.14287 6.85721 5.52663 6.85721 6.00001Z" fill="white"/>
</g>
<defs>
<clipPath id="clip0_4183_1401">
<rect width="12" height="12" fill="white"/>
</clipPath>
</defs>
</svg>
