<svg width="24" height="24" viewBox="0 0 24 24" fill="none" xmlns="http://www.w3.org/2000/svg">
<path fill-rule="evenodd" clip-rule="evenodd" d="M19.9999 3.75C19.9999 4.54565 19.6838 5.30871 19.1212 5.87132C18.5586 6.43393 17.7955 6.75 16.9999 6.75C16.2042 6.75 15.4412 6.43393 14.8786 5.87132C14.3159 5.30871 13.9999 4.54565 13.9999 3.75C13.9999 2.95435 14.3159 2.19129 14.8786 1.62868C15.4412 1.06607 16.2042 0.75 16.9999 0.75C17.7955 0.75 18.5586 1.06607 19.1212 1.62868C19.6838 2.19129 19.9999 2.95435 19.9999 3.75ZM8.99988 8.5C8.99988 9.29565 9.31595 10.0587 9.87856 10.6213C10.4412 11.1839 11.2042 11.5 11.9999 11.5C12.7955 11.5 13.5586 11.1839 14.1212 10.6213C14.6838 10.0587 14.9999 9.29565 14.9999 8.5C14.9999 7.70435 14.6838 6.94129 14.1212 6.37868C13.5586 5.81607 12.7955 5.5 11.9999 5.5C11.2042 5.5 10.4412 5.81607 9.87856 6.37868C9.31595 6.94129 8.99988 7.70435 8.99988 8.5ZM15.5849 23.1825C15.4714 23.1715 15.3592 23.1497 15.2499 23.1175C15.5019 22.7045 15.6499 22.2325 15.6794 21.7565L15.7674 20.3265C17.1114 19.9705 18.0189 18.6845 17.8814 17.2615C17.7774 16.1912 17.6356 15.1248 17.4564 14.0645C17.2554 12.8765 16.5024 11.8845 15.4524 11.3865C16.1305 10.5777 16.5015 9.55549 16.4999 8.5C16.4999 8.251 16.4799 8.007 16.4409 7.769C17.5174 7.7855 18.4974 7.8155 19.5684 7.8725C20.9119 7.943 22.0109 8.9445 22.2494 10.3095C22.4469 11.4395 22.6574 12.9315 22.7464 14.531C22.8024 15.537 22.1574 16.4545 21.1504 16.5775C20.9354 16.6035 20.6969 16.6275 20.4374 16.6455L20.0509 21.2755C19.9699 22.2445 19.2974 23.091 18.3139 23.1855C17.4063 23.2729 16.4923 23.2719 15.5849 23.1825ZM7.49988 8.5C7.49988 9.5985 7.89338 10.605 8.54738 11.3865C7.49738 11.884 6.74438 12.8765 6.54338 14.0645C6.36411 15.125 6.22236 16.1915 6.11838 17.262C5.98138 18.6845 6.88838 19.9705 8.23238 20.3265L8.32038 21.7565C8.35112 22.238 8.49834 22.7049 8.74938 23.117C8.64002 23.1492 8.52785 23.171 8.41438 23.182C7.50699 23.2718 6.59302 23.2731 5.68538 23.186C4.70238 23.091 4.02988 22.2445 3.94888 21.2755L3.56238 16.6455C3.30238 16.627 3.06488 16.6035 2.84888 16.5775C1.84238 16.4545 1.19738 15.537 1.25338 14.531C1.34238 12.9315 1.55288 11.4395 1.75038 10.3095C1.98888 8.9445 3.08788 7.943 4.43138 7.8725C5.47311 7.81781 6.51581 7.7833 7.55888 7.769C7.5195 8.01067 7.49977 8.25514 7.49988 8.5ZM15.9774 14.315C15.8104 13.3255 15.0189 12.595 14.0174 12.5455C13.3454 12.5137 12.6726 12.4986 11.9999 12.5C11.3273 12.4988 10.6547 12.5139 9.98288 12.5455C8.98088 12.5955 8.18988 13.3255 8.02288 14.315C7.84953 15.3403 7.71244 16.3715 7.61188 17.4065C7.53588 18.1935 8.11138 18.8765 8.90088 18.921C9.12438 18.9335 9.37438 18.946 9.65088 18.9565L9.81788 21.664C9.85788 22.312 10.3109 22.862 10.9554 22.937C11.3022 22.978 11.6511 22.9991 12.0004 23C12.3779 23 12.7354 22.973 13.0444 22.937C13.6894 22.862 14.1424 22.312 14.1824 21.664L14.3489 18.9565C14.599 18.9468 14.849 18.935 15.0989 18.921C15.8889 18.876 16.4639 18.1935 16.3884 17.406C16.2878 16.3712 16.1507 15.3402 15.9774 14.315ZM6.99988 6.75C6.20423 6.75 5.44117 6.43393 4.87856 5.87132C4.31595 5.30871 3.99988 4.54565 3.99988 3.75C3.99988 2.95435 4.31595 2.19129 4.87856 1.62868C5.44117 1.06607 6.20423 0.75 6.99988 0.75C7.79553 0.75 8.55859 1.06607 9.1212 1.62868C9.68381 2.19129 9.99988 2.95435 9.99988 3.75C9.99988 4.54565 9.68381 5.30871 9.1212 5.87132C8.55859 6.43393 7.79553 6.75 6.99988 6.75Z" fill="#FF8A2C"/>
</svg>
