<svg width="24" height="24" viewBox="0 0 24 24" fill="none" xmlns="http://www.w3.org/2000/svg">
<path fill-rule="evenodd" clip-rule="evenodd" d="M15.925 0.73321C16.1101 0.484574 16.4472 0.337393 16.8043 0.494671C21.6045 2.60913 24.2786 7.96425 22.8789 13.188C21.4164 18.6463 15.8169 21.8916 10.3578 20.4543C6.5956 19.1339 5.01435 15.7199 5.41655 12.6854C5.6219 11.1361 6.3427 9.70645 7.5389 8.70365C8.7279 7.7069 10.4382 7.08875 12.7078 7.24795C13.121 7.27695 13.4794 6.9655 13.5084 6.5523C13.5373 6.1391 13.2259 5.7806 12.8127 5.75165C10.2022 5.5685 8.0961 6.2792 6.5752 7.55415C5.0615 8.82315 4.17873 10.6082 3.92955 12.4883C3.5505 15.3483 4.6338 18.4762 7.2369 20.4673C7.476 21.0848 7.7698 21.7284 8.12825 22.3487C8.31055 22.6641 8.25595 23.0237 8.0751 23.2667C7.89005 23.5154 7.5529 23.6625 7.19585 23.5053C2.39556 21.3908 -0.278464 16.0357 1.12123 10.8119C2.58416 5.35225 8.18595 2.10676 13.6464 3.54674C17.4056 4.86815 18.9855 8.28075 18.5835 11.3141C18.3781 12.8635 17.6573 14.293 16.4611 15.2958C15.2721 16.2926 13.5618 16.9108 11.2922 16.7516C10.879 16.7226 10.5206 17.034 10.4916 17.4473C10.4627 17.8604 10.7741 18.2189 11.1873 18.2479C13.7978 18.431 15.9039 17.7204 17.4248 16.4454C18.9385 15.1764 19.8212 13.3912 20.0704 11.5112C20.4495 8.6512 19.3662 5.5233 16.7631 3.5322C16.524 2.91487 16.2303 2.27133 15.8719 1.65115C15.6896 1.33574 15.7442 0.97625 15.925 0.73321ZM12 14.4998C13.3807 14.4998 14.5 13.3805 14.5 11.9998C14.5 10.6191 13.3807 9.49975 12 9.49975C10.6193 9.49975 9.5 10.6191 9.5 11.9998C9.5 13.3805 10.6193 14.4998 12 14.4998Z" fill="#FF8A2C"/>
</svg>
