<svg width="148" height="154" viewBox="0 0 148 154" fill="none" xmlns="http://www.w3.org/2000/svg">
<g filter="url(#filter0_d_4091_6577)">
<g clip-path="url(#clip0_4091_6577)">
<rect width="148" height="148" rx="34.8235" fill="#6B2AAB"/>
<path fill-rule="evenodd" clip-rule="evenodd" d="M28.4719 36.3479C53.766 7.50693 105.522 2.87556 134.083 37.1492C144.061 49.1221 150.304 63.5054 156.248 77.1974C156.973 78.8681 157.694 80.5285 158.416 82.1729C159.129 83.7946 160.122 85.8636 161.257 88.225C164.916 95.8434 170.038 106.507 171.897 115.02C174.941 128.959 173.659 144.021 165.808 156.519C158.556 168.063 143.056 181.834 119.663 181.834C104.602 181.834 94.7107 177.54 90.6618 174.945C86.6128 172.349 82.1057 170.907 72.8766 173.983C71.8287 174.333 70.8065 174.679 69.8047 175.018C56.6307 179.478 46.9637 182.751 28.3334 176.547C21.3531 174.222 7.27955 164.37 2.53683 154.115C-3.39158 141.297 -4.353 135.068 -4.35294 118.705C-4.35286 94.0299 10.8211 56.4738 28.4719 36.3479Z" fill="black"/>
<path fill-rule="evenodd" clip-rule="evenodd" d="M28.4719 36.3479C53.766 7.50693 105.522 2.87556 134.083 37.1492C144.061 49.1221 150.304 63.5054 156.248 77.1974C156.973 78.8681 157.694 80.5285 158.416 82.1729C159.129 83.7946 160.122 85.8636 161.257 88.225C164.916 95.8434 170.038 106.507 171.897 115.02C174.941 128.959 173.659 144.021 165.808 156.519C158.556 168.063 143.056 181.834 119.663 181.834C104.602 181.834 94.7107 177.54 90.6618 174.945C86.6128 172.349 82.1057 170.907 72.8766 173.983C71.8287 174.333 70.8065 174.679 69.8047 175.018C56.6307 179.478 46.9637 182.751 28.3334 176.547C21.3531 174.222 7.27955 164.37 2.53683 154.115C-3.39158 141.297 -4.353 135.068 -4.35294 118.705C-4.35286 94.0299 10.8211 56.4738 28.4719 36.3479Z" fill="url(#paint0_linear_4091_6577)"/>
<path fill-rule="evenodd" clip-rule="evenodd" d="M28.4719 36.3479C53.766 7.50693 105.522 2.87556 134.083 37.1492C144.061 49.1221 150.304 63.5054 156.248 77.1974C156.973 78.8681 157.694 80.5285 158.416 82.1729C159.129 83.7946 160.122 85.8636 161.257 88.225C164.916 95.8434 170.038 106.507 171.897 115.02C174.941 128.959 173.659 144.021 165.808 156.519C158.556 168.063 143.056 181.834 119.663 181.834C104.602 181.834 94.7107 177.54 90.6618 174.945C86.6128 172.349 82.1057 170.907 72.8766 173.983C71.8287 174.333 70.8065 174.679 69.8047 175.018C56.6307 179.478 46.9637 182.751 28.3334 176.547C21.3531 174.222 7.27955 164.37 2.53683 154.115C-3.39158 141.297 -4.353 135.068 -4.35294 118.705C-4.35286 94.0299 10.8211 56.4738 28.4719 36.3479Z" fill="url(#paint1_linear_4091_6577)" fill-opacity="0.3"/>
<path fill-rule="evenodd" clip-rule="evenodd" d="M28.4719 36.3479C53.766 7.50693 105.522 2.87556 134.083 37.1492C144.061 49.1221 150.304 63.5054 156.248 77.1974C156.973 78.8681 157.694 80.5285 158.416 82.1729C159.129 83.7946 160.122 85.8636 161.257 88.225C164.916 95.8434 170.038 106.507 171.897 115.02C174.941 128.959 173.659 144.021 165.808 156.519C158.556 168.063 143.056 181.834 119.663 181.834C104.602 181.834 94.7107 177.54 90.6618 174.945C86.6128 172.349 82.1057 170.907 72.8766 173.983C71.8287 174.333 70.8065 174.679 69.8047 175.018C56.6307 179.478 46.9637 182.751 28.3334 176.547C21.3531 174.222 7.27955 164.37 2.53683 154.115C-3.39158 141.297 -4.353 135.068 -4.35294 118.705C-4.35286 94.0299 10.8211 56.4738 28.4719 36.3479Z" fill="url(#paint2_linear_4091_6577)" fill-opacity="0.3"/>
<path fill-rule="evenodd" clip-rule="evenodd" d="M28.4719 36.3479C53.766 7.50693 105.522 2.87556 134.083 37.1492C144.061 49.1221 150.304 63.5054 156.248 77.1974C156.973 78.8681 157.694 80.5285 158.416 82.1729C159.129 83.7946 160.122 85.8636 161.257 88.225C164.916 95.8434 170.038 106.507 171.897 115.02C174.941 128.959 173.659 144.021 165.808 156.519C158.556 168.063 143.056 181.834 119.663 181.834C104.602 181.834 94.7107 177.54 90.6618 174.945C86.6128 172.349 82.1057 170.907 72.8766 173.983C71.8287 174.333 70.8065 174.679 69.8047 175.018C56.6307 179.478 46.9637 182.751 28.3334 176.547C21.3531 174.222 7.27955 164.37 2.53683 154.115C-3.39158 141.297 -4.353 135.068 -4.35294 118.705C-4.35286 94.0299 10.8211 56.4738 28.4719 36.3479Z" fill="url(#paint3_linear_4091_6577)"/>
<path fill-rule="evenodd" clip-rule="evenodd" d="M28.4719 36.3479C53.766 7.50693 105.522 2.87556 134.083 37.1492C144.061 49.1221 150.304 63.5054 156.248 77.1974C156.973 78.8681 157.694 80.5285 158.416 82.1729C159.129 83.7946 160.122 85.8636 161.257 88.225C164.916 95.8434 170.038 106.507 171.897 115.02C174.941 128.959 173.659 144.021 165.808 156.519C158.556 168.063 143.056 181.834 119.663 181.834C104.602 181.834 94.7107 177.54 90.6618 174.945C86.6128 172.349 82.1057 170.907 72.8766 173.983C71.8287 174.333 70.8065 174.679 69.8047 175.018C56.6307 179.478 46.9637 182.751 28.3334 176.547C21.3531 174.222 7.27955 164.37 2.53683 154.115C-3.39158 141.297 -4.353 135.068 -4.35294 118.705C-4.35286 94.0299 10.8211 56.4738 28.4719 36.3479Z" fill="url(#paint4_linear_4091_6577)"/>
<path fill-rule="evenodd" clip-rule="evenodd" d="M28.4719 36.3479C53.766 7.50693 105.522 2.87556 134.083 37.1492C144.061 49.1221 150.304 63.5054 156.248 77.1974C156.973 78.8681 157.694 80.5285 158.416 82.1729C159.129 83.7946 160.122 85.8636 161.257 88.225C164.916 95.8434 170.038 106.507 171.897 115.02C174.941 128.959 173.659 144.021 165.808 156.519C158.556 168.063 143.056 181.834 119.663 181.834C104.602 181.834 94.7107 177.54 90.6618 174.945C86.6128 172.349 82.1057 170.907 72.8766 173.983C71.8287 174.333 70.8065 174.679 69.8047 175.018C56.6307 179.478 46.9637 182.751 28.3334 176.547C21.3531 174.222 7.27955 164.37 2.53683 154.115C-3.39158 141.297 -4.353 135.068 -4.35294 118.705C-4.35286 94.0299 10.8211 56.4738 28.4719 36.3479Z" fill="url(#paint5_linear_4091_6577)" fill-opacity="0.7"/>
<ellipse cx="90.557" cy="61.9913" rx="9.75319" ry="10.6266" fill="#2F1127"/>
<ellipse cx="87.4832" cy="57.6875" rx="2.07166" ry="2.21812" transform="rotate(9.7891 87.4832 57.6875)" fill="#FFF5EA"/>
<ellipse cx="50.6708" cy="61.9913" rx="9.75319" ry="10.6266" fill="#2F1127"/>
<ellipse cx="47.5972" cy="57.6875" rx="2.07166" ry="2.21812" transform="rotate(9.7891 47.5972 57.6875)" fill="#FFF5EA"/>
<path d="M78.3626 77.2571C78.534 76.4717 79.3095 75.9738 80.095 76.1452C80.8804 76.3165 81.3782 77.092 81.2069 77.8775C80.123 82.8456 75.0893 85.0627 70.6022 85.0824C66.1049 85.102 61.0464 82.923 59.8795 77.8966C59.6977 77.1134 60.1851 76.3313 60.9681 76.1494C61.7513 75.9676 62.5334 76.455 62.7153 77.2381C63.4408 80.3635 66.7529 82.1877 70.5894 82.171C74.4361 82.1541 77.6997 80.2952 78.3626 77.2571Z" fill="#2F1127"/>
<path d="M84.8188 106.354C86.6691 98.0813 96.905 94.6563 103.319 100.243C103.565 100.456 103.804 100.692 104.034 100.926C104.263 100.689 104.502 100.461 104.75 100.243C111.164 94.6581 121.402 98.0832 123.252 106.354C124.472 111.503 122.547 115.964 119.54 119.697C116.547 123.413 112.397 126.516 108.961 129.002C107.533 130.032 105.807 130.588 104.034 130.588C102.262 130.588 100.536 130.032 99.1077 129.002C95.6721 126.516 91.5222 123.415 88.5286 119.697C85.522 115.963 83.599 111.503 84.8188 106.354Z" fill="url(#paint6_linear_4091_6577)"/>
</g>
</g>
<defs>
<filter id="filter0_d_4091_6577" x="0" y="0" width="148" height="154" filterUnits="userSpaceOnUse" color-interpolation-filters="sRGB">
<feFlood flood-opacity="0" result="BackgroundImageFix"/>
<feColorMatrix in="SourceAlpha" type="matrix" values="0 0 0 0 0 0 0 0 0 0 0 0 0 0 0 0 0 0 127 0" result="hardAlpha"/>
<feOffset dy="6"/>
<feComposite in2="hardAlpha" operator="out"/>
<feColorMatrix type="matrix" values="0 0 0 0 0.92 0 0 0 0 0.409858 0 0 0 0 0 0 0 0 1 0"/>
<feBlend mode="normal" in2="BackgroundImageFix" result="effect1_dropShadow_4091_6577"/>
<feBlend mode="normal" in="SourceGraphic" in2="effect1_dropShadow_4091_6577" result="shape"/>
</filter>
<linearGradient id="paint0_linear_4091_6577" x1="-90.02" y1="27.7307" x2="233.348" y2="97.5688" gradientUnits="userSpaceOnUse">
<stop offset="0.580273" stop-color="#FFAA0C"/>
<stop offset="0.85029" stop-color="#DE4600"/>
</linearGradient>
<linearGradient id="paint1_linear_4091_6577" x1="15.0305" y1="1.32135" x2="74.8917" y2="244.287" gradientUnits="userSpaceOnUse">
<stop offset="0.580273" stop-color="#FFAA0C"/>
<stop offset="0.807493" stop-color="#DE4600"/>
</linearGradient>
<linearGradient id="paint2_linear_4091_6577" x1="15.0305" y1="1.32135" x2="5.64056" y2="192.642" gradientUnits="userSpaceOnUse">
<stop stop-color="#FFE0A7"/>
<stop offset="0.580273" stop-color="#FFAA0C"/>
<stop offset="0.85958" stop-color="#DE4600"/>
</linearGradient>
<linearGradient id="paint3_linear_4091_6577" x1="-90.02" y1="27.7307" x2="233.348" y2="97.5688" gradientUnits="userSpaceOnUse">
<stop offset="0.580273" stop-color="#FFAA0C"/>
<stop offset="0.85029" stop-color="#DE4600"/>
</linearGradient>
<linearGradient id="paint4_linear_4091_6577" x1="15.0305" y1="1.32135" x2="74.8917" y2="244.287" gradientUnits="userSpaceOnUse">
<stop offset="0.580273" stop-color="#FFAA0C"/>
<stop offset="0.807493" stop-color="#D10A00"/>
</linearGradient>
<linearGradient id="paint5_linear_4091_6577" x1="15.0305" y1="1.32135" x2="5.64056" y2="192.642" gradientUnits="userSpaceOnUse">
<stop stop-color="#FFE0A7"/>
<stop offset="0.580273" stop-color="#FFAA0C"/>
<stop offset="0.85958" stop-color="#D10A00"/>
</linearGradient>
<linearGradient id="paint6_linear_4091_6577" x1="104.035" y1="97.5059" x2="104.035" y2="130.588" gradientUnits="userSpaceOnUse">
<stop stop-color="#F14E97"/>
<stop offset="1" stop-color="#DF110C"/>
</linearGradient>
<clipPath id="clip0_4091_6577">
<rect width="148" height="148" rx="34.8235" fill="white"/>
</clipPath>
</defs>
</svg>
