<svg width="24" height="24" viewBox="0 0 24 24" fill="none" xmlns="http://www.w3.org/2000/svg">
<path fill-rule="evenodd" clip-rule="evenodd" d="M23.0949 17.4277C23.8217 16.8928 23.9769 15.872 23.442 15.1451C22.9071 14.4183 21.8862 14.2631 21.1594 14.798L16.2716 18.3996H11.347C10.9877 18.3996 10.6937 18.1056 10.6937 17.7462C10.6937 17.3869 10.9877 17.0929 11.347 17.0929H14.6137C15.3365 17.0929 15.9204 16.509 15.9204 15.7862C15.9204 15.0634 15.3365 14.4795 14.6137 14.4795H8.14974C6.96148 14.4795 5.80996 14.8797 4.88303 15.6229L3.0496 17.0929H1.54691C0.824155 17.0929 0.240234 17.6768 0.240234 18.3996L0.240234 21.0129C0.240234 21.7357 0.824155 22.3196 1.54691 22.3196H14.6301C15.8183 22.3196 16.9698 21.9399 17.9253 21.2375L23.0949 17.4277Z" fill="#FF8A2C"/>
<path d="M7.62234 5.38067C8.11834 3.12117 10.8623 2.18567 12.5818 3.71167C12.6478 3.76967 12.7118 3.83417 12.7733 3.89817C12.8348 3.83342 12.8988 3.77121 12.9653 3.71167C14.6848 2.18617 17.4293 3.12167 17.9253 5.38067C18.2523 6.78717 17.7363 8.00567 16.9303 9.02517C16.1278 10.0402 15.0153 10.8877 14.0943 11.5667C13.7115 11.8482 13.2488 12 12.7736 12C12.2984 12 11.8357 11.8482 11.4528 11.5667C10.5318 10.8877 9.41934 10.0407 8.61684 9.02517C7.81084 8.00517 7.29534 6.78717 7.62234 5.38067Z" fill="#F1524E"/>
</svg>
