<svg width="24" height="24" viewBox="0 0 24 24" fill="none" xmlns="http://www.w3.org/2000/svg">
<path fill-rule="evenodd" clip-rule="evenodd" d="M11.9999 0.428711C14.4719 0.428711 16.8837 0.561106 19.1864 0.6875L19.538 0.707031C21.4888 0.814017 23.2471 2.23787 23.4559 4.29297C23.6097 5.8086 23.6097 7.21385 23.4559 8.72949C23.2473 10.7849 21.489 12.2094 19.538 12.3164L19.1864 12.3359C16.8837 12.4623 14.4719 12.5947 11.9999 12.5947C9.52802 12.5947 7.11702 12.4623 4.81434 12.3359L4.46278 12.3164C2.51158 12.2096 0.75245 10.785 0.543832 8.72949C0.390013 7.21387 0.39001 5.80858 0.543832 4.29297C0.752662 2.23768 2.51172 0.81382 4.46278 0.707031L4.81434 0.6875C7.11704 0.56111 9.528 0.428721 11.9999 0.428711ZM11.9356 8.61719C11.6452 8.54698 11.3642 8.59869 11.1416 8.76367C10.9934 8.87358 10.8522 9.06415 10.792 9.23535C10.7195 9.44157 10.7221 9.69827 10.7979 9.89258C10.8408 10.0024 10.9221 10.129 11.0049 10.2148C11.1429 10.358 11.3295 10.4561 11.5235 10.4863C11.597 10.4976 11.8246 10.4899 11.8975 10.4736C12.0797 10.4329 12.2183 10.3561 12.3584 10.2207C12.5805 10.006 12.6857 9.67885 12.6279 9.37891C12.6097 9.28417 12.5608 9.15275 12.5137 9.07031C12.3892 8.85281 12.1569 8.67079 11.9356 8.61719ZM11.4795 2.5C10.7995 2.55825 10.2355 2.77168 9.7881 3.1416C9.70406 3.21109 9.54354 3.37502 9.46779 3.46875C9.26188 3.72363 9.11865 4.01438 9.04591 4.32324C9.00608 4.49248 8.99968 4.54241 9.00002 4.69434C9.00031 4.8232 9.00196 4.84184 9.01857 4.9043C9.07651 5.12194 9.20808 5.28037 9.41701 5.38574C9.61945 5.48777 9.86554 5.51929 10.1192 5.47559C10.4215 5.42336 10.6528 5.25484 10.7549 5.01172C10.7661 4.98512 10.7937 4.9013 10.8154 4.82617C10.888 4.57608 10.9878 4.4193 11.1543 4.29395C11.3736 4.12894 11.696 4.07636 11.9981 4.15723C12.2871 4.23465 12.5237 4.42966 12.6152 4.66602C12.6649 4.79437 12.6807 4.97517 12.6533 5.10449C12.6186 5.26884 12.5234 5.42866 12.3692 5.58496C12.2789 5.67644 12.2095 5.73453 12.0059 5.88672C11.7546 6.07457 11.4633 6.32068 11.3135 6.47168C11.1688 6.61755 11.0719 6.74751 10.9766 6.9209C10.9182 7.02717 10.8845 7.11027 10.8516 7.23047C10.7865 7.46835 10.7914 7.61392 10.8711 7.77539C10.967 7.96927 11.1572 8.10771 11.3916 8.1543C11.4285 8.16163 11.4699 8.16847 11.4834 8.16992C11.568 8.1789 11.8892 8.16618 11.9746 8.15039C12.2372 8.10136 12.4131 7.9463 12.5322 7.65723C12.5574 7.59604 12.5915 7.52206 12.6074 7.49316C12.6676 7.3843 12.7666 7.25918 12.8867 7.14258C13.0058 7.02703 13.1059 6.95071 13.416 6.7373C13.6732 6.56035 13.7514 6.49797 13.9024 6.35156C14.02 6.23748 14.0853 6.16022 14.169 6.0332C14.3395 5.77408 14.4427 5.50958 14.4873 5.2207C14.5062 5.0977 14.5134 4.81268 14.501 4.67578C14.4493 4.10527 14.2232 3.62027 13.832 3.24219C13.7268 3.14049 13.6329 3.06411 13.5195 2.98828C13.1034 2.71008 12.6693 2.56291 12.0879 2.50293C11.9512 2.48884 11.6257 2.48749 11.4795 2.5Z" fill="#FF8A2C"/>
<path d="M11.9069 13.4795C12.6779 13.4796 13.4015 13.6997 13.9313 14.2295C14.4609 14.7593 14.6803 15.483 14.6803 16.2539C14.6803 17.0249 14.4611 17.7485 13.9313 18.2783C13.742 18.4676 13.5276 18.6173 13.2956 18.7315C13.8383 18.9049 14.3479 19.1793 14.7956 19.5449C15.5603 20.1701 16.1005 21.0252 16.3376 21.9805C16.4512 22.4385 16.1732 22.903 15.7155 23.0186C14.3073 23.3739 13.1509 23.5685 11.9567 23.5713C10.763 23.574 9.57458 23.385 8.10124 23.0195C7.88067 22.9647 7.69023 22.8245 7.57292 22.6299C7.45562 22.4352 7.42051 22.2011 7.47526 21.9805C7.71232 21.0252 8.25253 20.1701 9.01725 19.5449C9.46483 19.1792 9.97455 18.9049 10.5173 18.7315C10.2853 18.6174 10.0717 18.4674 9.88249 18.2783C9.35271 17.7485 9.13255 17.0249 9.13249 16.2539C9.13249 15.4828 9.35264 14.7594 9.88249 14.2295C10.4123 13.6997 11.1358 13.4795 11.9069 13.4795Z" fill="#FF8A2C"/>
</svg>
