<svg width="73" height="87" viewBox="0 0 73 87" fill="none" xmlns="http://www.w3.org/2000/svg">
<g filter="url(#filter0_dd_3258_3549)">
<path d="M29.6308 30.5C29.6308 32.2239 30.3156 33.8772 31.5346 35.0962C32.7536 36.3152 34.4069 37 36.1308 37C37.8547 37 39.508 36.3152 40.727 35.0962C41.946 33.8772 42.6308 32.2239 42.6308 30.5C42.6308 28.7761 41.946 27.1228 40.727 25.9038C39.508 24.6848 37.8547 24 36.1308 24C34.4069 24 32.7536 24.6848 31.5346 25.9038C30.3156 27.1228 29.6308 28.7761 29.6308 30.5Z" fill="#FF8A2C"/>
<path d="M36.1308 38.5C33.3478 38.5 31.3118 38.58 29.9248 38.667C28.2728 38.771 26.8058 39.719 26.1148 41.247C25.1992 43.2667 24.5113 45.3821 24.0638 47.554C23.6648 49.522 25.1908 51.224 27.1278 51.308C27.6538 51.331 28.2398 51.354 28.8788 51.376L29.4578 59.186C29.5768 60.792 30.7838 62.132 32.4178 62.296C32.7388 62.329 33.0838 62.36 33.4438 62.388C33.6412 62.4026 33.8396 62.3775 34.0271 62.3142C34.2146 62.2508 34.3875 62.1505 34.5356 62.0191C34.6837 61.8877 34.8039 61.728 34.8891 61.5493C34.9743 61.3707 35.0229 61.1767 35.0318 60.979L35.3318 54.975C35.3382 54.8468 35.3937 54.7259 35.4868 54.6375C35.5799 54.5491 35.7034 54.4998 35.8318 54.5H36.4288C36.5572 54.4998 36.6807 54.5491 36.7738 54.6375C36.8669 54.7259 36.9224 54.8468 36.9288 54.975L37.2288 60.979C37.2376 61.1768 37.2861 61.3709 37.3713 61.5496C37.4564 61.7284 37.5766 61.8883 37.7247 62.0198C37.8728 62.1512 38.0457 62.2517 38.2333 62.3151C38.4209 62.3785 38.6193 62.4036 38.8168 62.389C39.1768 62.36 39.5218 62.329 39.8438 62.296C41.4778 62.132 42.6838 60.792 42.8038 59.186L43.3818 51.376C44.0218 51.354 44.6078 51.331 45.1328 51.308C47.0698 51.224 48.5958 49.522 48.1968 47.554C47.7496 45.3821 47.0621 43.2668 46.1468 41.247C45.4548 39.719 43.9868 38.771 42.3368 38.667C40.9488 38.58 38.9128 38.5 36.1308 38.5Z" fill="#FF8A2C"/>
</g>
<defs>
<filter id="filter0_dd_3258_3549" x="-11.8691" y="-4" width="96" height="96" filterUnits="userSpaceOnUse" color-interpolation-filters="sRGB">
<feFlood flood-opacity="0" result="BackgroundImageFix"/>
<feColorMatrix in="SourceAlpha" type="matrix" values="0 0 0 0 0 0 0 0 0 0 0 0 0 0 0 0 0 0 127 0" result="hardAlpha"/>
<feOffset/>
<feGaussianBlur stdDeviation="12"/>
<feComposite in2="hardAlpha" operator="out"/>
<feColorMatrix type="matrix" values="0 0 0 0 0.87451 0 0 0 0 0.309804 0 0 0 0 0.345098 0 0 0 1 0"/>
<feBlend mode="normal" in2="BackgroundImageFix" result="effect1_dropShadow_3258_3549"/>
<feColorMatrix in="SourceAlpha" type="matrix" values="0 0 0 0 0 0 0 0 0 0 0 0 0 0 0 0 0 0 127 0" result="hardAlpha"/>
<feOffset/>
<feGaussianBlur stdDeviation="4"/>
<feComposite in2="hardAlpha" operator="out"/>
<feColorMatrix type="matrix" values="0 0 0 0 0.87451 0 0 0 0 0.309804 0 0 0 0 0.345098 0 0 0 1 0"/>
<feBlend mode="normal" in2="effect1_dropShadow_3258_3549" result="effect2_dropShadow_3258_3549"/>
<feBlend mode="normal" in="SourceGraphic" in2="effect2_dropShadow_3258_3549" result="shape"/>
</filter>
</defs>
</svg>
