<svg width="24" height="24" viewBox="0 0 24 24" fill="none" xmlns="http://www.w3.org/2000/svg">
<path d="M8.74998 5.25C8.74998 6.11195 9.09239 6.9386 9.70189 7.5481C10.3114 8.15759 11.138 8.5 12 8.5C12.8619 8.5 13.6886 8.15759 14.2981 7.5481C14.9076 6.9386 15.25 6.11195 15.25 5.25C15.25 4.38805 14.9076 3.5614 14.2981 2.9519C13.6886 2.34241 12.8619 2 12 2C11.138 2 10.3114 2.34241 9.70189 2.9519C9.09239 3.5614 8.74998 4.38805 8.74998 5.25Z" fill="#FF8A2C"/>
<path d="M12 9.25C10.6085 9.25 9.59048 9.29 8.89698 9.3335C8.07098 9.3855 7.33748 9.8595 6.99198 10.6235C6.53419 11.6334 6.19023 12.691 5.96648 13.777C5.76698 14.761 6.52998 15.612 7.49848 15.654C7.76148 15.6655 8.05448 15.677 8.37398 15.688L8.66348 19.593C8.72298 20.396 9.32648 21.066 10.1435 21.148C10.304 21.1645 10.4765 21.18 10.6565 21.194C10.7552 21.2013 10.8544 21.1888 10.9481 21.1571C11.0419 21.1254 11.1283 21.0752 11.2024 21.0096C11.2764 20.9439 11.3365 20.864 11.3791 20.7747C11.4217 20.6853 11.446 20.5884 11.4505 20.4895L11.6005 17.4875C11.6037 17.4234 11.6314 17.363 11.678 17.3188C11.7245 17.2745 11.7863 17.2499 11.8505 17.25H12.149C12.2132 17.2499 12.2749 17.2745 12.3215 17.3188C12.368 17.363 12.3958 17.4234 12.399 17.4875L12.549 20.4895C12.5534 20.5884 12.5776 20.6854 12.6202 20.7748C12.6628 20.8642 12.7229 20.9441 12.7969 21.0099C12.871 21.0756 12.9574 21.1258 13.0512 21.1575C13.145 21.1893 13.2442 21.2018 13.343 21.1945C13.523 21.18 13.6955 21.1645 13.8565 21.148C14.6735 21.066 15.2765 20.396 15.3365 19.593L15.6255 15.688C15.9455 15.677 16.2385 15.6655 16.501 15.654C17.4695 15.612 18.2325 14.761 18.033 13.777C17.8094 12.6911 17.4656 11.6334 17.008 10.6235C16.662 9.8595 15.928 9.3855 15.103 9.3335C14.409 9.29 13.391 9.25 12 9.25Z" fill="#FF8A2C"/>
</svg>
