<svg width="24" height="24" viewBox="0 0 24 24" fill="none" xmlns="http://www.w3.org/2000/svg">
<path d="M13.4429 9.46924C13.5685 9.46924 13.6315 9.31737 13.5426 9.22852L10.9179 6.60246C10.4931 6.17664 10.4806 5.49445 10.8809 5.05389C10.893 5.04055 10.9055 5.02744 10.9184 5.01456L12.903 3.02899C13.3414 2.59035 14.0523 2.59035 14.4907 3.02899L22.6712 11.2135C22.8904 11.4328 23 11.7203 23 12.0077C23 12.2952 22.8904 12.5826 22.6712 12.8019L14.4907 20.9864C14.0523 21.4251 13.3414 21.4251 12.903 20.9864L10.9184 19.0008C10.4803 18.5625 10.4808 17.8511 10.9184 17.4124L13.5426 14.7869C13.6315 14.698 13.5685 14.5462 13.4429 14.5462H2.12821C1.50512 14.5462 1 14.0411 1 13.418V10.5974C1 9.97436 1.50511 9.46924 2.12821 9.46924H13.4429Z" fill="white"/>
</svg>
