<svg width="24" height="24" viewBox="0 0 24 24" fill="none" xmlns="http://www.w3.org/2000/svg">
<path fill-rule="evenodd" clip-rule="evenodd" d="M4.0717 0.98313C5.70415 0.86932 8.29835 0.75 12 0.75C15.7016 0.75 18.2959 0.86932 19.9283 0.98313C21.5612 1.09696 22.8592 2.32933 23.0043 3.97945C23.1289 5.39715 23.25 7.53705 23.25 10.5C23.25 13.4629 23.1289 15.6028 23.0043 17.0205C22.8592 18.6707 21.5612 19.903 19.9283 20.0168C18.362 20.126 15.9104 20.2403 12.4448 20.2494L8.8135 23.3619C8.00265 24.0569 6.75 23.4809 6.75 22.4129V20.1579C5.66845 20.1166 4.77966 20.0662 4.0717 20.0168C2.43883 19.903 1.14074 18.6707 0.9957 17.0205C0.87109 15.6028 0.75 13.4629 0.75 10.5C0.75 7.53705 0.87109 5.39715 0.9957 3.97945C1.14074 2.32933 2.43883 1.09696 4.0717 0.98313ZM17.7343 7.20615C17.7438 7.3577 17.75 7.5379 17.75 7.75C17.75 7.9637 17.7437 8.14475 17.7341 8.29665C17.7013 8.81675 17.2886 9.1607 16.7987 9.18285C16.1157 9.21365 14.7318 9.25 12 9.25C9.2775 9.25 7.89395 9.2153 7.2086 9.1857C6.7151 9.16445 6.29845 8.8179 6.2657 8.29385C6.2562 8.1423 6.25 7.9621 6.25 7.75C6.25 7.5379 6.2562 7.3577 6.2657 7.20615C6.29845 6.6821 6.7151 6.33555 7.2086 6.3143C7.89395 6.2847 9.27755 6.25 12 6.25C14.7225 6.25 16.1061 6.2847 16.7914 6.3143C17.2849 6.33555 17.7016 6.6821 17.7343 7.20615ZM13.7409 12.7324C13.7464 12.8777 13.75 13.0492 13.75 13.25C13.75 13.4529 13.7464 13.6258 13.7408 13.7717C13.7208 14.29 13.3337 14.6699 12.8223 14.6974C12.3258 14.7241 11.467 14.75 10 14.75C8.5413 14.75 7.6842 14.7254 7.18665 14.6999C6.671 14.6734 6.27885 14.2908 6.25905 13.7676C6.25355 13.6223 6.25 13.4508 6.25 13.25C6.25 13.0492 6.25355 12.8777 6.25905 12.7324C6.27885 12.2092 6.671 11.8266 7.18665 11.8001C7.6842 11.7746 8.5413 11.75 10 11.75C11.4587 11.75 12.3158 11.7746 12.8133 11.8001C13.329 11.8266 13.7211 12.2092 13.7409 12.7324Z" fill="#FF8A2C"/>
</svg>
