<svg width="24" height="24" viewBox="0 0 24 24" fill="none" xmlns="http://www.w3.org/2000/svg">
<path d="M10.9938 1.33551C11.4085 0.506331 12.5918 0.506326 13.0063 1.33551L13.6075 2.53791C16.1385 2.92385 18.3827 4.18728 20.0625 5.8256C21.8251 7.54455 23.0208 9.7307 23.2381 11.849C23.3046 12.4964 23.0256 13.1734 22.395 13.5302C21.3327 14.1312 18.816 15.0889 13.405 15.2319L13.5 19.362C13.5 21.6474 11.7092 23.5 9.50005 23.5C7.2909 23.5 5.50005 21.6474 5.50005 19.362V18.9819C5.50005 18.4211 5.8247 17.9133 6.38145 17.8461C6.5604 17.8244 6.7666 17.8104 7.00005 17.8104C7.2335 17.8104 7.43975 17.8244 7.6187 17.8461C8.1754 17.9133 8.50005 18.4211 8.50005 18.9819V19.362C8.50005 19.9334 8.9478 20.3965 9.50005 20.3965C10.0523 20.3965 10.5 19.9334 10.5 19.362L10.5951 15.2319C5.18435 15.0889 2.66776 14.1312 1.6054 13.5302C0.974825 13.1734 0.695835 12.4964 0.76226 11.849C0.97957 9.73075 2.17523 7.54465 3.93778 5.82565C5.6176 4.18738 7.86165 2.92394 10.3926 2.53795L10.9938 1.33551Z" fill="#FF8A2C"/>
</svg>
